<?xml version="1.0" standalone="no"?><!DOCTYPE svg PUBLIC "-//W3C//DTD SVG 1.1//EN" "http://www.w3.org/Graphics/SVG/1.1/DTD/svg11.dtd"><svg t="1698736658697" class="icon" viewBox="0 0 1024 1024" version="1.1" xmlns="http://www.w3.org/2000/svg" p-id="1722" xmlns:xlink="http://www.w3.org/1999/xlink" width="200" height="200"><path d="M832 341.333333L789.333333 128H106.666667s-64 149.333333-64 384 64 384 64 384h682.666666l42.666667-213.333333h149.333333V341.333333h-149.333333z m106.666667 298.666667h-140.8l-42.666667 213.333333h-618.666667c-6.4-17.066667-12.8-40.533333-19.2-70.4C100.266667 718.933333 85.333333 625.066667 85.333333 512c0-113.066667 14.933333-206.933333 29.866667-270.933333 8.533333-29.866667 14.933333-53.333333 21.333333-70.4h618.666667l42.666667 213.333333H938.666667v256z" fill="#000000" p-id="1723"></path><path d="M706.133333 488.533333L81.066667 226.133333l-4.266667 25.6 21.333333 4.266667-21.333333-4.266667V258.133333c0 4.266667-2.133333 10.666667-4.266667 19.2-2.133333 17.066667-6.4 38.4-10.666666 64-10.666667 53.333333-19.2 117.333333-19.2 170.666667s8.533333 117.333333 17.066666 168.533333c4.266667 25.6 8.533333 49.066667 10.666667 64 2.133333 8.533333 2.133333 14.933333 4.266667 19.2V770.133333l21.333333-4.266666-21.333333 4.266666 4.266666 25.6L704 533.333333l277.333333 117.333334v-277.333334l-275.2 115.2zM110.933333 738.133333c-2.133333-14.933333-6.4-38.4-10.666666-64-6.4-51.2-14.933333-113.066667-14.933334-162.133333s8.533333-110.933333 14.933334-162.133333c4.266667-25.6 8.533333-46.933333 10.666666-64L650.666667 512 110.933333 738.133333zM938.666667 586.666667L761.6 512l177.066667-74.666667v149.333334z" fill="#000000" p-id="1724"></path></svg>